# xmcd CD database file
#
# Track frame offsets:
#	150
#	17911
#	37592
#	57512
#	74893
#	97036
#	115545
#	135411
#	157534
#	175597
#	193482
#	213456
#	238861
#
# Disc length: 3517 seconds
#
# Revision: 0
# Processed by: cddbd v1.5.2PL0 Copyright (c) Steve Scherf et al.
# Submitted via: CDex 1.51
#
DISCID=b10dbb0d
DTITLE=Gladys Knight - Before Me 
DYEAR=2006
DGENRE=Jazz
TTITLE0=Do Nothing Till You Hear From Me
TTITLE1=The Man I Love
TTITLE2=Good Morning Heartache
TTITLE3=Since I Feel For You
TTITLE4=God Bless The Child
TTITLE5=This Bitter Earth
TTITLE6=I Got It Bad (And That Ain't Good)
TTITLE7=Someone To Watch Over Me
TTITLE8=But Not For Me
TTITLE9=I'll Be Seeing You
TTITLE10=Stormy Weather
TTITLE11=Come Sunday
TTITLE12=Willow Weep For Me
EXTD=YEAR: 2006
EXTT0=
EXTT1=
EXTT2=
EXTT3=
EXTT4=
EXTT5=
EXTT6=
EXTT7=
EXTT8=
EXTT9=
EXTT10=
EXTT11=
EXTT12=
PLAYORDER=
